<?xml version="1.0" encoding="utf-8"?>
<!-- Generator: Adobe Illustrator 27.6.1, SVG Export Plug-In . SVG Version: 6.00 Build 0)  -->
<svg version="1.1" id="Layer_1" xmlns="http://www.w3.org/2000/svg" xmlns:xlink="http://www.w3.org/1999/xlink" x="0px" y="0px"
	 viewBox="0 0 384.9 107.8" style="enable-background:new 0 0 384.9 107.8;" xml:space="preserve">
<style type="text/css">
	.st0{fill:#6A49F2;}
</style>
<g>
	<g>
		<path class="st0" d="M111,20.3c0,3.9,0,7.8,0,11.6c0,3.8,0,7.6,0,11.6c0.8-0.7,1.4-1.2,2-1.7c11.6-8.9,27.9-6.7,36.6,5.1
			c5.8,7.8,7.4,16.4,4.2,25.5c-3.7,10.4-11.2,16.8-22.4,18.3c-14.5,2-26-7.3-29.6-18.6c-0.8-2.6-1.2-5.4-1.2-8.1
			c-0.1-14.2-0.1-28.4-0.1-42.5c0-0.9,0.2-1.3,1.2-1.3c2.7,0.1,5.3,0,8,0C110.2,20.3,110.5,20.3,111,20.3z M145,63.9
			c0.1-9.2-7.5-17-16.8-17.2c-9.3-0.1-17.1,7.5-17.2,16.8c-0.1,9.3,7.4,17.1,16.6,17.2C137.1,80.9,144.9,73.5,145,63.9z"/>
		<path class="st0" d="M240.4,53.5c-12,7.8-24,15.6-36.1,23.5c4.9,3.8,10.2,5,15.8,3.1c8-2.6,11.3-8.8,12-16.9
			c0.2,0,0.5-0.1,0.7-0.1c2.9,0,5.8,0,8.7,0c0.7,0,0.9,0.2,0.9,0.9c-0.2,13.4-10.6,25.3-23.6,26.8c-12.2,1.4-23.8-4.4-28.7-15.6
			c-4.5-10.1-3.3-20,3.7-28.7c6.2-7.7,14.5-10.8,24.3-9.9C227.3,37.4,237.2,44.8,240.4,53.5z M198.8,68.2c9-5.9,18-11.7,27-17.5
			c-5.6-4.9-14.5-5.2-20.5-0.8C198.4,54.8,196.9,62.9,198.8,68.2z"/>
		<path class="st0" d="M265.8,76.9c6.6,5.9,17.5,5,23.1-1.6c2.8-3.3,4.3-7,4.5-11.3c0-0.3,0.4-0.9,0.6-0.9c3.2-0.1,6.4,0,9.6,0
			c0.9,10.4-6.9,24-20.3,27.2c-16.5,3.9-29.8-6.1-33.2-18.7c-4.7-17.3,6.3-30.5,18.3-34c15.7-4.5,29,4.8,33.3,15.9
			C289.9,61.3,277.9,69,265.8,76.9z M260.3,68.1c9-5.8,17.9-11.6,26.9-17.4c-4.9-4.5-13.9-5.6-20.3-1
			C260.8,54,257.7,62.7,260.3,68.1z"/>
		<path class="st0" d="M79.3,84.2c-1.8,1.2-3.3,2.4-5,3.4c-5,3-10.5,3.7-16.2,3.2c-13.8-1.2-27.6-16.5-22-35.3
			c2.8-9.5,12.4-18.1,23.8-19c13.1-1,23.7,7.1,27.8,17.1c1.3,3.1,1.9,6.4,1.9,9.8c0,8.5,0,17.1,0,25.6c0,0.9-0.2,1.2-1.1,1.2
			c-2.7-0.1-5.3-0.1-8,0c-0.9,0-1.2-0.2-1.2-1.2C79.3,87.4,79.3,85.9,79.3,84.2z M79.3,63.7c0.1-9.2-7.7-16.9-17-17
			c-9.3-0.1-17,7.6-17.1,17c0,9.3,7.6,17,16.8,17C71.6,80.8,79.2,73.3,79.3,63.7z"/>
		<path class="st0" d="M11.4,90.1c0-14.2,0-28.3,0-42.5c-0.9,0-1.8,0-2.7,0c-1.7,0-3.3,0-4.9,0c-0.3,0-0.8-0.3-0.8-0.5
			c0-3.2,0-6.4,0-9.8c2.8,0,5.6,0,8.4,0c0-5.7,0-11.3,0-17c3.5,0,6.8,0,10.3,0c0,5.6,0,11.2,0,16.9c2.9,0,5.7,0,8.5,0
			c0,3.5,0,6.8,0,10.3c-2.8,0-5.5,0-8.5,0c0,0.6,0,1,0,1.5c0,13.2,0,26.5,0,39.7c0,1.4,0,1.4-1.5,1.4C17.4,90.1,14.5,90.1,11.4,90.1
			z"/>
		<path class="st0" d="M176.7,20.3c0,0.4,0,0.8,0,1.2c0,22.4,0,44.9,0,67.3c0,1.1-0.3,1.4-1.4,1.3c-2.5-0.1-5,0-7.5,0
			c-1.5,0-1.5,0-1.5-1.5c0-19.1,0-38.1,0-57.2c0-3.4,0-6.7,0-10.1c0-0.8,0.2-1.2,1.1-1.1c2.8,0.1,5.5,0,8.2,0
			C175.9,20.3,176.2,20.3,176.7,20.3z"/>
		<path class="st0" d="M336.7,46.7c-2.5,0.2-4.8,0.5-7,1.8c-4,2.4-6.5,5.8-6.6,10.6c-0.1,9.9,0,19.7,0,29.6c0,1.5,0,1.5-1.5,1.5
			c-2.6,0-5.3,0-7.9,0c-0.6,0-0.9-0.2-0.9-0.9c0-10.3,0-20.5,0.1-30.8c0.1-6.2,2.8-11.3,7.4-15.4c4.4-4,9.5-6.3,15.4-6.6
			c0.9,0,1.2,0.1,1.1,1c0,2.8,0,5.5,0,8.2C336.8,46.1,336.7,46.3,336.7,46.7z"/>
	</g>
	<g>
		<path class="st0" d="M344.7,55c-0.8-3.1-0.6-6.6,0.9-9.3c2.5-4.7,8.4-7.5,13.5-8.2c0.6-0.1,1.2-0.1,1.8-0.1c6-0.2,12,2.3,16.6,6.2
			c0.2,0.2,0.5,0.4,0.5,0.7c0,0.3-0.2,0.6-0.4,0.9c-1.2,1.5-2.4,3-3.6,4.5c-0.2,0.2-0.4,0.5-0.7,0.6c-0.5,0.2-1-0.2-1.4-0.5
			c-2.6-2.1-5.9-3.1-9.1-3.5c-1.9-0.2-3.9-0.2-5.6,0.6c-1.8,0.8-3.2,2.4-3.3,4.3c-0.1,1.5,0.6,2.9,1.7,3.9s2.4,1.7,3.8,2.2
			c5.8,2.2,12.5,2.3,17.4,6.1c3.5,2.8,5.6,7.3,5.4,11.8s-2.4,8.8-5.9,11.6c-3.2,2.6-7.4,3.8-11.5,4.2c-8.2,0.8-16.8-1.8-22.9-7.4
			c-0.2-0.2-0.4-0.4-0.4-0.7c0-0.2,0.1-0.5,0.3-0.7c1.2-1.6,2.5-3.2,3.8-4.8c0.2-0.3,0.5-0.6,0.8-0.6c0.4-0.1,0.8,0.2,1.1,0.5
			c3.6,3,8.1,4.8,12.8,5.3c3.2,0.3,6.6-0.1,9.1-2c2.6-1.9,4-5.6,2.5-8.4c-1-1.9-3-3.1-4.9-3.8c-3.3-1.3-6.8-1.9-10.1-2.8
			c-3.4-0.9-6.8-2.4-9.1-4.9C346.2,59,345.3,57.1,344.7,55z"/>
	</g>
</g>
</svg>
